<svg width="192" height="192" viewBox="0 0 192 192" xmlns="http://www.w3.org/2000/svg">
  <rect width="192" height="192" rx="24" fill="#3B82F6"/>
  <path d="M96 48C113.673 48 128 62.327 128 80C128 89.941 123.357 98.902 116.485 105.515L112.485 109.515C109.828 112.172 109.828 116.485 112.485 119.142C115.142 121.799 119.455 121.799 122.112 119.142L126.112 115.142C136.112 105.142 144 91.799 144 80C144 53.49 122.51 32 96 32C69.49 32 48 53.49 48 80C48 91.799 55.888 105.142 65.888 115.142L69.888 119.142C72.545 121.799 76.858 121.799 79.515 119.142C82.172 116.485 82.172 112.172 79.515 109.515L75.515 105.515C68.643 98.902 64 89.941 64 80C64 62.327 78.327 48 96 48Z" fill="white"/>
  <circle cx="96" cy="152" r="8" fill="white"/>
  <rect x="88" y="120" width="16" height="24" rx="8" fill="white"/>
</svg>